<svg width="116" height="22" viewBox="0 0 116 22" fill="none" xmlns="http://www.w3.org/2000/svg">
<path d="M94.3408 21.2105V0H110.692C111.443 0 112.124 0.186574 112.736 0.559721C113.368 0.932869 113.872 1.43367 114.247 2.06213C114.622 2.67095 114.81 3.34851 114.81 4.09481V8.24853C114.81 8.50384 114.79 8.74933 114.751 8.985C114.711 9.22068 114.642 9.44653 114.543 9.66256C114.879 10.1143 115.146 10.5856 115.343 11.0766C115.56 11.5676 115.669 12.0586 115.669 12.5495V17.1157C115.669 17.862 115.481 18.5494 115.106 19.1778C114.731 19.7866 114.227 20.2776 113.595 20.6508C112.964 21.0239 112.272 21.2105 111.522 21.2105H94.3408ZM98.6065 17.2925H111.344C111.443 17.2925 111.532 17.263 111.611 17.2041C111.69 17.1255 111.729 17.0371 111.729 16.9389V12.7263C111.729 12.6281 111.69 12.5495 111.611 12.4906C111.532 12.4121 111.443 12.3728 111.344 12.3728H98.6065C98.5077 12.3728 98.4189 12.4121 98.3399 12.4906C98.2806 12.5495 98.251 12.6281 98.251 12.7263V16.9389C98.251 17.0371 98.2806 17.1255 98.3399 17.2041C98.4189 17.263 98.5077 17.2925 98.6065 17.2925ZM98.6065 8.45474H110.515C110.613 8.45474 110.692 8.42528 110.752 8.36636C110.811 8.28781 110.841 8.19943 110.841 8.10123V4.27156C110.841 4.17336 110.811 4.09481 110.752 4.03589C110.692 3.95733 110.613 3.91805 110.515 3.91805H98.6065C98.5077 3.91805 98.4189 3.95733 98.3399 4.03589C98.2806 4.09481 98.251 4.17336 98.251 4.27156V8.10123C98.251 8.19943 98.2806 8.28781 98.3399 8.36636C98.4189 8.42528 98.5077 8.45474 98.6065 8.45474Z" fill="#FAF1F1"/>
<path d="M66.4574 21.2105C65.7069 21.2105 65.0157 21.0239 64.3838 20.6508C63.7716 20.2776 63.2779 19.7866 62.9027 19.1778C62.5275 18.5494 62.3398 17.862 62.3398 17.1157V0H66.25V16.9389C66.25 17.0371 66.2796 17.1255 66.3389 17.2041C66.4179 17.263 66.5068 17.2925 66.6055 17.2925H79.3432C79.4419 17.2925 79.5308 17.263 79.6098 17.2041C79.6888 17.1255 79.7283 17.0371 79.7283 16.9389V0H83.6681V17.1157C83.6681 17.862 83.4805 18.5494 83.1053 19.1778C82.73 19.7866 82.2265 20.2776 81.5945 20.6508C80.9823 21.0239 80.301 21.2105 79.5505 21.2105H66.4574Z" fill="#FAF1F1"/>
<path d="M31.9883 21.2105V0H35.8985V17.2979H53.3165V21.2105H31.9883Z" fill="#FAF1F1"/>
<path d="M4.129 21.2105C3.37648 21.2105 2.68336 21.0239 2.04965 20.6508C1.43575 20.2776 0.940661 19.7866 0.564396 19.1778C0.188132 18.5494 0 17.862 0 17.1157V4.0948C0 3.34851 0.188132 2.67095 0.564396 2.06213C0.940661 1.43367 1.43575 0.932869 2.04965 0.559721C2.68336 0.186574 3.37648 0 4.129 0H21.3282V3.91805H4.96075C4.64389 3.91805 4.38645 4.00643 4.18842 4.18318C4.01018 4.35994 3.92107 4.61525 3.92107 4.94912V16.2614C3.92107 16.5756 4.01018 16.8309 4.18842 17.0273C4.38645 17.2041 4.64389 17.2924 4.96075 17.2924H21.3282V21.2105H4.129Z" fill="#FAF1F1"/>
</svg>
