<svg width="490" height="281" viewBox="0 0 490 281" fill="none" xmlns="http://www.w3.org/2000/svg">
<path d="M480.009 0C485.532 6.5971e-05 490.009 4.47719 490.009 10V270.842C490.009 276.365 485.532 280.842 480.009 280.842H10C4.47715 280.842 0 276.365 0 270.842V10C6.18487e-06 4.47716 4.47716 0 10 0H480.009ZM17.6934 14.8789C14.9319 14.8789 12.6934 17.1175 12.6934 19.8789V263.052C12.6934 265.813 14.9319 268.052 17.6934 268.052H225.052C227.813 268.052 230.052 265.813 230.052 263.052V19.8789C230.052 17.1175 227.813 14.8789 225.052 14.8789H17.6934Z" fill="white"/>
</svg>

