<svg width="79" height="79" viewBox="0 0 79 79" fill="none" xmlns="http://www.w3.org/2000/svg">
<path d="M0 8.13693C0 3.64302 3.64303 0 8.13694 0H69.9777C74.4716 0 78.1146 3.64303 78.1146 8.13694V69.9777C78.1146 74.4716 74.4716 78.1146 69.9777 78.1146H8.13693C3.64302 78.1146 0 74.4716 0 69.9777V8.13693Z" fill="white" fill-opacity="0.03"/>
<path d="M8.13672 0.813477H69.9775C74.022 0.813477 77.3007 4.0923 77.3008 8.13672V69.9775C77.3008 74.0221 74.0221 77.3008 69.9775 77.3008H8.13672C4.0923 77.3007 0.813477 74.022 0.813477 69.9775V8.13672C0.81359 4.09237 4.09237 0.813597 8.13672 0.813477Z" stroke="white" stroke-opacity="0.03" stroke-width="1.62739"/>
<path d="M52.593 26.9733C50.1036 25.7869 47.4341 24.9129 44.643 24.4123C44.5922 24.4026 44.5414 24.4267 44.5152 24.475C44.1719 25.1092 43.7916 25.9366 43.5253 26.5869C40.5233 26.1201 37.5366 26.1201 34.5962 26.5869C34.3298 25.9222 33.9357 25.1092 33.5909 24.475C33.5647 24.4284 33.5139 24.4042 33.4631 24.4123C30.6735 24.9113 28.004 25.7853 25.5131 26.9733C25.4915 26.9829 25.4731 26.9991 25.4608 27.02C20.3973 34.8769 19.0102 42.5407 19.6907 50.1095C19.6938 50.1465 19.7138 50.182 19.7415 50.2045C23.0822 52.7526 26.3183 54.2995 29.4943 55.3249C29.5451 55.341 29.5989 55.3217 29.6313 55.2782C30.3826 54.2126 31.0523 53.0891 31.6264 51.9075C31.6603 51.8383 31.628 51.7562 31.5587 51.7289C30.4965 51.3103 29.485 50.8001 28.512 50.2206C28.4351 50.1739 28.4289 50.0596 28.4997 50.0048C28.7045 49.8455 28.9093 49.6797 29.1048 49.5123C29.1401 49.4817 29.1894 49.4753 29.231 49.4946C35.623 52.5257 42.5431 52.5257 48.8596 49.4946C48.9012 49.4737 48.9505 49.4801 48.9874 49.5107C49.183 49.6781 49.3877 49.8455 49.594 50.0048C49.6648 50.0596 49.6602 50.1739 49.5832 50.2206C48.6103 50.8113 47.5988 51.3103 46.535 51.7273C46.4658 51.7546 46.435 51.8383 46.4688 51.9075C47.0554 53.0874 47.7251 54.211 48.4625 55.2766C48.4933 55.3217 48.5487 55.341 48.5995 55.3249C51.7909 54.2995 55.0269 52.7526 58.3676 50.2045C58.3969 50.182 58.4154 50.1481 58.4184 50.1111C59.2328 41.3608 57.0544 33.7598 52.6437 27.0216C52.633 26.9991 52.6145 26.9829 52.593 26.9733ZM32.581 45.5009C30.6566 45.5009 29.0709 43.6659 29.0709 41.4123C29.0709 39.1587 30.6258 37.3237 32.581 37.3237C34.5515 37.3237 36.1218 39.1748 36.091 41.4123C36.091 43.6659 34.5361 45.5009 32.581 45.5009ZM45.559 45.5009C43.6346 45.5009 42.0489 43.6659 42.0489 41.4123C42.0489 39.1587 43.6038 37.3237 45.559 37.3237C47.5295 37.3237 49.0998 39.1748 49.0691 41.4123C49.0691 43.6659 47.5295 45.5009 45.559 45.5009Z" fill="#A4A4A4"/>
</svg>
