<svg width="132" height="79" viewBox="0 0 132 79" fill="none" xmlns="http://www.w3.org/2000/svg">
<path d="M0 8.13693C0 3.64302 3.64303 0 8.13694 0H123.682C128.175 0 131.818 3.64303 131.818 8.13694V69.9777C131.818 74.4716 128.175 78.1146 123.682 78.1146H8.13694C3.64303 78.1146 0 74.4716 0 69.9777V8.13693Z" fill="white" fill-opacity="0.03"/>
<path d="M8.13672 0.813477H123.682C127.726 0.813538 131.005 4.09234 131.005 8.13672V69.9775C131.005 74.022 127.726 77.3007 123.682 77.3008H8.13672C4.0923 77.3007 0.813477 74.022 0.813477 69.9775V8.13672C0.81359 4.09237 4.09237 0.813597 8.13672 0.813477Z" stroke="white" stroke-opacity="0.03" stroke-width="1.62739"/>
<path d="M74.9861 22.3154H56.8984V54.7652H74.9861V22.3154Z" fill="#9595AD"/>
<path d="M58.0997 38.5415C58.0997 31.9487 61.2035 26.0973 65.9663 22.3166C62.4611 19.5646 58.0395 17.9014 53.2166 17.9014C41.7914 17.9014 32.5469 27.1327 32.5469 38.5415C32.5469 49.9504 41.7914 59.1817 53.2166 59.1817C58.0395 59.1817 62.4611 57.5184 65.9663 54.7664C61.1968 51.0392 58.0997 45.1343 58.0997 38.5415Z" fill="#A4A4A4"/>
<path d="M99.3862 38.5415C99.3862 49.9504 90.1417 59.1817 78.7165 59.1817C73.8935 59.1817 69.472 57.5184 65.9668 54.7664C70.7897 50.979 73.8333 45.1343 73.8333 38.5415C73.8333 31.9487 70.7295 26.0973 65.9668 22.3166C69.4653 19.5646 73.8868 17.9014 78.7098 17.9014C90.1417 17.9014 99.3862 27.1928 99.3862 38.5415Z" fill="#80808F"/>
</svg>
