<svg width="132" height="79" viewBox="0 0 132 79" fill="none" xmlns="http://www.w3.org/2000/svg">
<path d="M0 8.13693C0 3.64302 3.64303 0 8.13694 0H123.682C128.175 0 131.818 3.64303 131.818 8.13694V69.9777C131.818 74.4716 128.175 78.1146 123.682 78.1146H8.13694C3.64303 78.1146 0 74.4716 0 69.9777V8.13693Z" fill="white" fill-opacity="0.03"/>
<path d="M8.13672 0.813477H123.682C127.726 0.813538 131.005 4.09234 131.005 8.13672V69.9775C131.005 74.022 127.726 77.3007 123.682 77.3008H8.13672C4.0923 77.3007 0.813477 74.022 0.813477 69.9775V8.13672C0.81359 4.09237 4.09237 0.813597 8.13672 0.813477Z" stroke="white" stroke-opacity="0.03" stroke-width="1.62739"/>
<path d="M22.7832 27.6698H30.7324C31.4551 27.6698 33.623 27.4289 34.5866 30.8013C35.3092 32.9692 36.2727 36.3416 37.7181 41.4002H38.1998C39.6451 36.1007 40.8496 32.4875 41.3313 30.8013C42.2949 27.4289 44.7037 27.6698 45.6673 27.6698H53.1347V50.7947H45.4264V37.0643H44.9446L40.8496 50.7947H35.0683L30.9733 37.0643H30.2506V50.7947H22.7832M56.2662 27.6698H63.9745V41.4002H64.6971L69.7557 30.0786C70.7193 27.9107 72.8872 27.6698 72.8872 27.6698H80.1138V50.7947H72.4055V37.0643H71.9237L66.8651 48.3859C65.9016 50.5538 63.4927 50.7947 63.4927 50.7947H56.2662M90.4718 43.8091V50.7947H83.2453V38.7505H106.852C105.888 41.6411 102.516 43.8091 98.6619 43.8091" fill="#A4A4A4"/>
<path d="M107.336 37.3043C108.299 32.9684 105.409 27.6689 99.1458 27.6689H82.7656C83.2474 32.7275 87.5833 37.3043 92.1601 37.3043" fill="#A4A4A4"/>
</svg>
