<svg width="132" height="79" viewBox="0 0 132 79" fill="none" xmlns="http://www.w3.org/2000/svg">
<path d="M0 8.13693C0 3.64302 3.64303 0 8.13694 0H123.682C128.175 0 131.818 3.64303 131.818 8.13694V69.9777C131.818 74.4716 128.175 78.1146 123.682 78.1146H8.13694C3.64303 78.1146 0 74.4716 0 69.9777V8.13693Z" fill="white" fill-opacity="0.03"/>
<path d="M8.13672 0.813477H123.682C127.726 0.813538 131.005 4.09234 131.005 8.13672V69.9775C131.005 74.022 127.726 77.3007 123.682 77.3008H8.13672C4.0923 77.3007 0.813477 74.022 0.813477 69.9775V8.13672C0.81359 4.09237 4.09237 0.813597 8.13672 0.813477Z" stroke="white" stroke-opacity="0.03" stroke-width="1.62739"/>
<path d="M96.1036 29.5143V39.4611H92.5518V32.4837H89.1319V39.4611H85.5801V29.5137H96.1036V29.5143Z" fill="#A4A4A4"/>
<path fill-rule="evenodd" clip-rule="evenodd" d="M78.2879 39.8176C81.4674 39.8176 83.8285 37.8682 83.8285 34.9127C83.8285 32.0522 82.0865 30.195 79.1751 30.195C77.8315 30.195 76.7229 30.6679 75.8878 31.484C76.0872 29.7973 77.5135 28.5659 79.0839 28.5659C79.4464 28.5659 82.175 28.5601 82.175 28.5601L83.7179 25.6074C83.7179 25.6074 80.2923 25.6854 78.6998 25.6854C75.0612 25.7488 72.6035 29.0561 72.6035 33.0731C72.6035 37.7529 75.0005 39.8176 78.2879 39.8176ZM78.3072 32.8103C79.4877 32.8103 80.3062 33.5861 80.3062 34.9124C80.3062 36.1062 79.5789 37.0897 78.3072 37.0924C77.0907 37.0924 76.2723 36.1811 76.2723 34.9327C76.2723 33.6061 77.0907 32.8103 78.3072 32.8103Z" fill="#A4A4A4"/>
<path d="M69.7119 36.1321C69.7119 36.1321 68.8731 36.6155 67.6204 36.7071C66.1801 36.7498 64.8969 35.8401 64.8969 34.2239C64.8969 32.6474 66.0292 31.7438 67.5841 31.7438C68.5375 31.7438 69.7987 32.4046 69.7987 32.4046C69.7987 32.4046 70.7216 30.7111 71.1996 29.8642C70.3242 29.2007 69.1583 28.8369 67.8021 28.8369C64.3795 28.8369 61.7285 31.0685 61.7285 34.2039C61.7285 37.3794 64.2201 39.5591 67.8021 39.4933C68.8033 39.456 70.1845 39.1044 71.0264 38.5637L69.7119 36.1321Z" fill="#A4A4A4"/>
<path d="M26.0371 26.7559L30.964 35.5624V40.9342L26.0429 49.7235L26.0371 26.7559Z" fill="#A4A4A4"/>
<path d="M44.957 32.358L49.5737 29.5283L59.0221 29.5195L44.957 38.1359V32.358Z" fill="#727284"/>
<path d="M44.9299 26.7052L44.956 38.3648L40.0176 35.3304V17.9014L44.9299 26.7052Z" fill="#A4A4A4"/>
<path d="M59.0212 29.5206L49.5724 29.5294L44.9299 26.7052L40.0176 17.9014L59.0212 29.5206Z" fill="#A4A4A4"/>
<path d="M44.956 49.7723V44.1154L40.0176 41.1387L40.0203 58.585L44.956 49.7723Z" fill="#A4A4A4"/>
<path d="M49.5598 46.9685L30.9637 35.5624L26.0371 26.7559L58.9997 46.9569L49.5598 46.9685Z" fill="#A4A4A4"/>
<path d="M40.0195 58.5871L44.9546 49.7744L49.5598 46.9705L58.9997 46.959L40.0195 58.5871Z" fill="#727284"/>
<path d="M26.0449 49.7252L40.0585 41.1407L35.3472 38.25L30.9661 40.9359L26.0449 49.7252Z" fill="#727284"/>
<path d="M64.8993 46.1554C64.7908 46.2937 64.648 46.3981 64.4768 46.4687C64.3011 46.5402 64.1132 46.5766 63.9235 46.5758C63.7349 46.5784 63.5473 46.5469 63.3698 46.4829C63.2104 46.425 63.0648 46.3347 62.942 46.2178C62.8207 46.1006 62.7255 45.9592 62.6626 45.8028C62.5945 45.6314 62.5605 45.4484 62.5626 45.2641C62.5626 45.081 62.5941 44.9114 62.6596 44.7507C62.7223 44.5897 62.8135 44.4517 62.9277 44.3358C63.042 44.2174 63.179 44.1272 63.3329 44.0567C63.4899 43.9889 63.6611 43.9523 63.8492 43.9523C64.052 43.9523 64.2402 43.9777 64.4114 44.0282C64.5826 44.0791 64.728 44.1639 64.8477 44.2825L64.6396 44.6351C64.5389 44.5439 64.4203 44.4746 64.2914 44.4317C64.1688 44.3922 64.0407 44.3723 63.912 44.3727C63.7981 44.3727 63.6896 44.3951 63.5841 44.4375C63.4802 44.4793 63.3853 44.5407 63.3044 44.6182C63.2218 44.6979 63.1566 44.794 63.1132 44.9003C63.0647 45.0101 63.042 45.1315 63.042 45.2668C63.042 45.4051 63.0674 45.5292 63.1159 45.6363C63.1647 45.7465 63.2302 45.8397 63.3129 45.9184C63.3956 45.9977 63.4926 46.0567 63.6038 46.0964C63.7153 46.1388 63.8323 46.1584 63.9577 46.1584C64.1117 46.1584 64.2517 46.1272 64.3714 46.0679C64.49 46.0106 64.5965 45.9312 64.6853 45.834L64.8993 46.1554ZM65.4868 46.5165V44.0059H65.9377V45.8764L67.4041 44.0059H67.855V46.5168H67.4041V44.6463L65.9377 46.5168L65.4868 46.5165ZM70.842 46.1554C70.731 46.2949 70.5855 46.4029 70.4199 46.4687C70.2441 46.5401 70.056 46.5765 69.8662 46.5758C69.6777 46.5783 69.4903 46.5469 69.3129 46.4829C69.1534 46.425 69.0076 46.3347 68.8847 46.2178C68.7634 46.1006 68.6682 45.9592 68.6053 45.8028C68.5372 45.6314 68.5032 45.4484 68.5053 45.2641C68.5053 45.081 68.5368 44.9114 68.6023 44.7507C68.6653 44.5897 68.7565 44.4517 68.8704 44.3358C68.9847 44.2174 69.1217 44.1272 69.2756 44.0567C69.4382 43.9851 69.6143 43.9495 69.792 43.9523C69.9947 43.9523 70.1829 43.9777 70.3541 44.0282C70.5253 44.0791 70.6707 44.1639 70.7908 44.2825L70.5823 44.6351C70.4817 44.5438 70.3633 44.4745 70.2344 44.4317C70.1118 44.3922 69.9838 44.3723 69.855 44.3727C69.6284 44.3734 69.4107 44.4613 69.2471 44.6182C69.1652 44.6985 69.1002 44.7944 69.0559 44.9003C69.0074 45.0101 68.9847 45.1315 68.9847 45.2668C68.9847 45.4051 69.0105 45.5292 69.0589 45.6363C69.1074 45.7465 69.1729 45.8397 69.2556 45.9184C69.3383 45.9977 69.4356 46.0567 69.5468 46.0964C69.658 46.1357 69.775 46.1584 69.9004 46.1584C70.0547 46.1584 70.1917 46.1272 70.3141 46.0679C70.4327 46.0106 70.5392 45.9312 70.628 45.834L70.842 46.1554ZM71.0732 44.0059H73.3868V44.4517H72.4568V46.5165H72.0059V44.4517H71.0759V44.0059H71.0732Z" fill="#A4A4A4"/>
<path fill-rule="evenodd" clip-rule="evenodd" d="M75.4907 46.492C75.6619 46.4384 75.8074 46.3564 75.9328 46.2438L75.7959 45.8939C75.7131 45.9675 75.6019 46.0296 75.468 46.0804C75.3337 46.1313 75.1825 46.1564 75.0171 46.1564C74.7689 46.1564 74.5634 46.0916 74.4007 45.959C74.2383 45.8261 74.1498 45.6403 74.1298 45.403H76.0813C76.1013 45.3155 76.1098 45.2169 76.1098 45.1013C76.1098 44.929 76.0783 44.7741 76.0156 44.633C75.9572 44.4961 75.8718 44.3723 75.7647 44.2689C75.656 44.1665 75.5279 44.087 75.388 44.035C75.2415 43.9781 75.0857 43.9494 74.9286 43.9502C74.7174 43.9502 74.5319 43.9868 74.3695 44.0546C74.216 44.1192 74.0771 44.2143 73.9613 44.334C73.8489 44.4531 73.7625 44.5943 73.7077 44.7487C73.6474 44.913 73.6174 45.0869 73.6192 45.262C73.6192 45.4596 73.6535 45.64 73.7162 45.801C73.7772 45.957 73.8706 46.0984 73.9901 46.2157C74.1071 46.331 74.2495 46.4188 74.418 46.4808C74.5984 46.5448 74.7887 46.5762 74.9801 46.5737C75.1535 46.5726 75.3256 46.5449 75.4907 46.492ZM74.3495 44.5595C74.4892 44.4327 74.6747 44.3706 74.9086 44.3706C75.1283 44.3706 75.3053 44.43 75.4338 44.5486C75.5623 44.6669 75.6304 44.8307 75.6419 45.0392H74.1013C74.1232 44.8546 74.2114 44.6839 74.3495 44.5595Z" fill="#A4A4A4"/>
<path d="M76.7227 44.0059H77.1336L78.1093 45.2501L79.0336 44.0059H79.4329V46.5168H78.9824V44.686L78.1036 45.8509H78.0863L77.1736 44.6856V46.5165H76.7227V44.0059Z" fill="#A4A4A4"/>
<path fill-rule="evenodd" clip-rule="evenodd" d="M80.6611 44.015C80.5242 44.0507 80.3935 44.1067 80.2732 44.1811L80.3929 44.5371C80.4956 44.4862 80.5983 44.4439 80.7011 44.4072C80.8038 44.3703 80.935 44.3533 81.092 44.3533C81.2174 44.3533 81.3175 44.3733 81.3944 44.4127C81.4714 44.4493 81.5283 44.5059 81.5683 44.5737C81.6084 44.6415 81.6341 44.7259 81.6484 44.8246C81.6626 44.9233 81.6684 45.0304 81.6684 45.1464C81.5761 45.0821 81.4709 45.0387 81.3602 45.0192C81.2531 44.9979 81.1442 44.9866 81.035 44.9853C80.9008 44.9853 80.7753 45.0053 80.6553 45.0389C80.5356 45.0728 80.4329 45.1236 80.3502 45.1914C80.2657 45.2591 80.1975 45.3449 80.1505 45.4423C80.1002 45.5491 80.0748 45.6658 80.0762 45.7838C80.0762 46.0292 80.1478 46.2211 80.2902 46.3567C80.4329 46.492 80.6211 46.5595 80.855 46.5595C81.0662 46.5595 81.2347 46.5229 81.3629 46.4496C81.4914 46.3761 81.5941 46.2916 81.6684 46.1957V46.5201H82.0905V44.9799C82.0905 44.6524 82.0193 44.3988 81.8738 44.2208C81.7311 44.0431 81.4771 43.9529 81.1178 43.9529C80.9577 43.9529 80.8065 43.9753 80.6611 44.015ZM81.4148 46.0492C81.312 46.1225 81.1778 46.156 81.0123 46.156C80.8669 46.156 80.7526 46.1194 80.6729 46.0489C80.5929 45.9756 80.5529 45.8797 80.5529 45.761C80.5529 45.6909 80.5672 45.6315 80.5987 45.578C80.6302 45.5244 80.6729 45.482 80.7214 45.4481C80.7745 45.4126 80.8333 45.3868 80.8953 45.3718C80.9611 45.3549 81.0266 45.3464 81.095 45.3464C81.3178 45.3464 81.5087 45.4 81.6657 45.5129V45.8316C81.5917 45.9144 81.5074 45.9878 81.4148 46.0492ZM86.0708 43.1233C86.162 43.0813 86.2474 43.0107 86.3275 42.9063L86.082 42.5537C86.0193 42.6385 85.9481 42.6975 85.8681 42.7287C85.7833 42.7618 85.6953 42.7863 85.6056 42.8019L85.5202 42.8171C85.446 42.83 85.3663 42.8443 85.2805 42.8585C85.1429 42.884 85.0089 42.9256 84.8811 42.9826C84.6784 43.0701 84.516 43.1884 84.3932 43.3379C84.2705 43.4874 84.1735 43.6566 84.1078 43.8431C84.0411 44.032 83.9962 44.2279 83.9738 44.4269C83.9508 44.6303 83.9396 44.8246 83.9396 45.0107C83.9396 45.2508 83.9708 45.4678 84.0335 45.6624C84.0966 45.8573 84.1847 46.0207 84.3017 46.1533C84.4187 46.2889 84.5587 46.3906 84.7241 46.4639C84.8896 46.5371 85.075 46.5737 85.2832 46.5737C85.4744 46.5737 85.6514 46.5371 85.8111 46.4693C85.965 46.4041 86.1047 46.3093 86.222 46.1903C86.3359 46.0743 86.4275 45.936 86.4902 45.781C86.5556 45.6258 86.5872 45.4593 86.5872 45.2843C86.5872 45.0955 86.5587 44.9236 86.5044 44.771C86.4545 44.6256 86.3748 44.4921 86.2705 44.3791C86.166 44.268 86.0383 44.1812 85.8965 44.1248C85.7404 44.0633 85.5738 44.0327 85.4059 44.0346C85.2975 44.0346 85.192 44.0489 85.0893 44.077C84.9894 44.1052 84.8934 44.146 84.8038 44.1984C84.7169 44.2482 84.6372 44.3098 84.5672 44.3815C84.4987 44.4523 84.4417 44.5313 84.4017 44.6215H84.3902C84.399 44.5059 84.4132 44.3876 84.4387 44.2662C84.4644 44.1448 84.5014 44.0289 84.5502 43.919C84.5987 43.8092 84.6614 43.7102 84.7384 43.62C84.8209 43.529 84.9221 43.4568 85.035 43.4084C85.1592 43.3493 85.2907 43.3066 85.426 43.2816L85.5155 43.2654C85.6046 43.2491 85.6897 43.2335 85.7711 43.2165C85.8796 43.1942 85.9793 43.1653 86.0708 43.1233ZM84.4844 45.5356C84.4403 45.3931 84.4191 45.2446 84.4217 45.0955C84.4408 45.0099 84.4757 44.9287 84.5244 44.8558C84.5729 44.7795 84.6356 44.712 84.7099 44.6524C84.8775 44.5211 85.0846 44.4506 85.2975 44.4523C85.5629 44.4523 85.7626 44.534 85.9023 44.6951C86.0423 44.8585 86.1108 45.0616 86.1108 45.3071C86.1108 45.4284 86.0878 45.5386 86.0481 45.64C86.0095 45.74 85.9513 45.8312 85.8768 45.9083C85.8023 45.9853 85.7131 46.0466 85.6145 46.0886C85.5117 46.1336 85.4002 46.1564 85.2747 46.1564C85.1493 46.1564 85.035 46.1309 84.9296 46.0801C84.8248 46.0302 84.7322 45.958 84.6584 45.8685C84.581 45.7688 84.5221 45.656 84.4844 45.5356ZM90.045 44.0065H89.5941V46.5174H90.045V44.0065ZM87.2374 44.0065H87.6884V44.7598H88.1051C88.3017 44.7598 88.4614 44.7853 88.5899 44.8331C88.7184 44.8812 88.8211 44.946 88.8981 45.025C88.975 45.104 89.0293 45.1972 89.0608 45.3013C89.092 45.4057 89.1093 45.5129 89.1093 45.6258C89.1093 45.7387 89.092 45.8461 89.055 45.9533C89.0208 46.0604 88.9608 46.1533 88.8808 46.2381C88.8011 46.3228 88.6926 46.3906 88.5556 46.4415C88.4187 46.492 88.2532 46.5201 88.0535 46.5201H87.2347V44.0065H87.2374ZM87.6884 45.1799V46.0997H88.0166C88.242 46.0997 88.4017 46.0604 88.4929 45.9811C88.5845 45.9021 88.6299 45.7895 88.6299 45.64C88.6299 45.4874 88.5814 45.3722 88.4902 45.2928C88.3959 45.2138 88.239 45.1742 88.0223 45.1742H87.6884V45.1799Z" fill="#A4A4A4"/>
<path d="M93.0243 46.1554C92.9158 46.2937 92.773 46.3981 92.6018 46.4687C92.4261 46.5401 92.2382 46.5765 92.0485 46.5758C91.8599 46.5784 91.6723 46.5469 91.4948 46.4829C91.3354 46.4251 91.1897 46.3348 91.067 46.2178C90.9457 46.1005 90.8504 45.9592 90.7873 45.8028C90.7194 45.6314 90.6856 45.4484 90.6876 45.2641C90.6876 45.081 90.7188 44.9115 90.7846 44.7507C90.8473 44.5897 90.9385 44.4517 91.0527 44.3358C91.167 44.2174 91.3036 44.1272 91.4579 44.0567C91.6205 43.9851 91.7966 43.9495 91.9743 43.9523C92.1767 43.9523 92.3652 43.9777 92.5364 44.0282C92.7076 44.0791 92.853 44.1639 92.9727 44.2825L92.7646 44.6351C92.6639 44.5439 92.5453 44.4746 92.4164 44.4317C92.2938 44.3922 92.1657 44.3723 92.037 44.3727C91.9231 44.3727 91.8146 44.3951 91.7088 44.4375C91.605 44.4793 91.5101 44.5407 91.4294 44.6182C91.3474 44.6984 91.2823 44.7943 91.2382 44.9003C91.1897 45.0101 91.167 45.1315 91.167 45.2668C91.167 45.4051 91.1924 45.5292 91.2409 45.6363C91.2894 45.7465 91.3552 45.8397 91.4379 45.9184C91.5206 45.9977 91.6176 46.0567 91.7288 46.0964C91.8403 46.1357 91.9573 46.1584 92.0827 46.1584C92.2367 46.1584 92.3736 46.1273 92.4964 46.0679C92.615 46.0106 92.7215 45.9312 92.8103 45.834L93.0243 46.1554ZM93.2551 44.0059H95.5691V44.4517H94.6388V46.5165H94.1882V44.4517H93.2582V44.0059H93.2551Z" fill="#A4A4A4"/>
<path fill-rule="evenodd" clip-rule="evenodd" d="M96.5134 44.007H96.0625V47.6347H96.5134V46.402C96.6046 46.4613 96.7131 46.5037 96.8386 46.5318C96.964 46.56 97.0952 46.5739 97.2295 46.5739C97.4292 46.5739 97.6089 46.5373 97.7716 46.4698C97.9277 46.403 98.0691 46.3063 98.188 46.185C98.3049 46.0633 98.3934 45.9222 98.4561 45.7558C98.5189 45.5896 98.5504 45.4116 98.5504 45.2228C98.5504 45.0363 98.5219 44.8644 98.4677 44.7092C98.4166 44.5617 98.3371 44.4257 98.2337 44.3087C98.1323 44.1947 98.0064 44.105 97.8655 44.0463C97.7115 43.9801 97.5452 43.9474 97.3776 43.9504C97.201 43.9504 97.0356 43.9843 96.8786 44.0521C96.7216 44.1199 96.5989 44.2013 96.5134 44.303V44.007ZM96.8274 44.4725C96.9559 44.4047 97.0956 44.3708 97.2468 44.3708C97.378 44.3708 97.4949 44.3905 97.6007 44.4328C97.7035 44.4752 97.7889 44.5345 97.8604 44.6135C97.9316 44.6925 97.9859 44.7831 98.0201 44.8899C98.0571 44.997 98.0744 45.1129 98.0744 45.2397C98.0744 45.3754 98.0513 45.4964 98.0116 45.6093C97.9742 45.7163 97.9149 45.8144 97.8374 45.8972C97.7595 45.9789 97.6652 46.0433 97.5607 46.086C97.4442 46.1348 97.3188 46.1588 97.1925 46.1565C97.0701 46.1565 96.9559 46.1426 96.8474 46.1145C96.7286 46.0822 96.6159 46.0306 96.5138 45.9619V44.7176C96.5934 44.622 96.6992 44.5403 96.8274 44.4725ZM102.008 44.0067H101.557V46.5176H102.008V44.0067ZM99.1979 44.0067H99.6489V44.76H100.065C100.262 44.76 100.422 44.7854 100.55 44.8332C100.679 44.8814 100.782 44.9461 100.859 45.0251C100.936 45.1041 100.99 45.1974 101.021 45.3015C101.053 45.4059 101.069 45.513 101.069 45.6259C101.069 45.7388 101.053 45.8463 101.016 45.9534C100.981 46.0606 100.921 46.1535 100.841 46.2382C100.762 46.323 100.653 46.3908 100.516 46.4417C100.379 46.4922 100.214 46.5203 100.014 46.5203H99.1952V44.0067H99.1979ZM99.6519 45.1801V46.0999H99.9801C100.205 46.0999 100.365 46.0606 100.456 45.9812C100.548 45.9022 100.593 45.7897 100.593 45.6402C100.593 45.4876 100.545 45.3723 100.454 45.293C100.36 45.214 100.203 45.1743 99.9859 45.1743H99.6519V45.1801Z" fill="#A4A4A4"/>
<path d="M104.171 45.2162L105.135 46.5168H104.582L103.837 45.501L103.081 46.5168H102.556L103.514 45.2386L102.613 44.0059H103.167L103.854 44.9538L104.553 44.0059H105.078L104.171 45.2162ZM64.565 49.62H63.1814V51.7133H62.7305V49.2027H65.0156V51.7133H64.565V49.62ZM67.5747 49.6482H66.6847L66.6559 50.0713C66.6247 50.4297 66.582 50.7175 66.522 50.9372C66.462 51.1576 66.3877 51.3268 66.3023 51.4451C66.2168 51.5638 66.1168 51.6455 66.0026 51.6851C65.8847 51.7279 65.7601 51.7489 65.6347 51.7472L65.6005 51.3125C65.6489 51.3152 65.7059 51.3041 65.7686 51.2759C65.8317 51.2478 65.8944 51.1857 65.9541 51.0928C66.0141 50.9965 66.0683 50.8613 66.1168 50.6863C66.1653 50.5087 66.1968 50.2774 66.2138 49.9865L66.2595 49.2051H68.0256V51.716H67.5747V49.6482Z" fill="#A4A4A4"/>
<path fill-rule="evenodd" clip-rule="evenodd" d="M69.2392 49.2095C69.0934 49.2488 68.9622 49.3051 68.851 49.3756L68.971 49.7313C69.0738 49.6804 69.1765 49.6381 69.2789 49.6014C69.3816 49.5648 69.5132 49.5479 69.6698 49.5479C69.7956 49.5479 69.8952 49.5675 69.9722 49.6069C70.0495 49.6438 70.1065 49.7001 70.1465 49.7679C70.1861 49.8357 70.2119 49.9205 70.2262 50.0188C70.2404 50.1178 70.2462 50.2249 70.2462 50.3405C70.1539 50.2763 70.0487 50.2331 69.938 50.2137C69.8309 50.1924 69.722 50.1811 69.6128 50.1798C69.4789 50.1798 69.3531 50.1995 69.2334 50.2334C69.1134 50.2673 69.0107 50.3182 68.928 50.386C68.8435 50.4537 68.7753 50.5394 68.7283 50.6369C68.6781 50.7436 68.6529 50.8604 68.6544 50.9783C68.6544 51.2234 68.7256 51.4156 68.8683 51.5509C69.0107 51.6862 69.1992 51.754 69.4331 51.754C69.6444 51.754 69.8125 51.7174 69.941 51.6438C70.0692 51.5706 70.1719 51.4858 70.2462 51.3899V51.7143H70.6686V50.1741C70.6686 49.8469 70.5971 49.593 70.4516 49.4153C70.3089 49.2373 70.0549 49.1475 69.6956 49.1475C69.5414 49.1476 69.3879 49.1687 69.2392 49.2095ZM69.9953 51.2431C69.8929 51.3166 69.7586 51.3505 69.5932 51.3505C69.4447 51.3505 69.3335 51.3139 69.2538 51.2431C69.1738 51.1698 69.1338 51.0739 69.1338 50.9556C69.1338 50.885 69.148 50.8257 69.1795 50.7721C69.2107 50.7186 69.2538 50.6762 69.3023 50.6423C69.3507 50.6084 69.4104 50.583 69.4762 50.566C69.5414 50.5492 69.6085 50.5407 69.6759 50.5409C69.8983 50.5409 70.0895 50.5945 70.2465 50.707V51.0257C70.1724 51.1086 70.088 51.1817 69.9953 51.2431Z" fill="#A4A4A4"/>
<path d="M71.1113 49.2031H73.4253V49.6486H72.495V51.7137H72.0444V49.649H71.1144V49.2031H71.1113Z" fill="#A4A4A4"/>
<path fill-rule="evenodd" clip-rule="evenodd" d="M75.5321 51.6877C75.7033 51.6342 75.8487 51.5521 75.9742 51.4395L75.8372 51.0897C75.7545 51.1632 75.6433 51.2253 75.509 51.2761C75.3751 51.327 75.2239 51.3521 75.0584 51.3521C74.8102 51.3521 74.6048 51.2873 74.442 51.1548C74.2793 51.0222 74.1912 50.8361 74.1712 50.5987H76.1227C76.1423 50.5116 76.1511 50.4126 76.1511 50.297C76.1511 50.1251 76.1196 49.9698 76.0569 49.8288C75.9985 49.6918 75.913 49.5681 75.8057 49.465C75.6972 49.3624 75.5692 49.2827 75.4293 49.2307C75.2829 49.1739 75.127 49.1451 74.9699 49.1459C74.7587 49.1459 74.5733 49.1826 74.4109 49.2504C74.2572 49.3148 74.1183 49.4099 74.0027 49.5297C73.8902 49.6489 73.8038 49.7901 73.7487 49.9444C73.6886 50.1088 73.6586 50.2827 73.6602 50.4577C73.6602 50.6553 73.6945 50.8357 73.7572 50.9968C73.8202 51.1575 73.9142 51.2958 74.0311 51.4114C74.1481 51.527 74.2908 51.6145 74.4593 51.6765C74.6396 51.7406 74.8298 51.7722 75.0211 51.7698C75.1896 51.7698 75.3608 51.7413 75.5321 51.6877ZM74.3881 49.7525C74.5278 49.6257 74.7133 49.5636 74.9472 49.5636C75.17 49.5636 75.3439 49.6257 75.4724 49.7413C75.6005 49.86 75.669 50.0234 75.6806 50.2322H74.14C74.1617 50.0475 74.2499 49.877 74.3881 49.7525ZM76.3709 49.2026H76.9415L77.8114 50.4129L76.8814 51.7132H76.3281L77.3035 50.4126L76.3709 49.2026ZM77.9226 49.2026H78.3736V51.7132H77.9226V49.2026ZM79.9854 51.7132L78.9926 50.4126L79.9199 49.2022H79.3605L78.4848 50.4126L79.4263 51.7132H79.9854ZM82.0454 51.6877C82.2166 51.6342 82.362 51.5521 82.4875 51.4395L82.3505 51.0897C82.2678 51.1632 82.1566 51.2253 82.0227 51.2761C81.8884 51.327 81.7372 51.3521 81.5717 51.3521C81.3236 51.3521 81.1181 51.2873 80.9554 51.1548C80.793 51.0222 80.7045 50.8361 80.6845 50.5987H82.636C82.656 50.5116 82.6645 50.4126 82.6645 50.297C82.6645 50.1251 82.6333 49.9698 82.5702 49.8288C82.5118 49.6919 82.4265 49.5682 82.3193 49.465C82.2107 49.3624 82.0826 49.2827 81.9426 49.2307C81.7962 49.1739 81.6403 49.1451 81.4832 49.1459C81.2724 49.1459 81.0869 49.1826 80.9242 49.2504C80.7707 49.3149 80.6319 49.4099 80.5163 49.5297C80.4037 49.6487 80.3172 49.79 80.2624 49.9444C80.2021 50.1087 80.1721 50.2826 80.1739 50.4577C80.1739 50.6553 80.2081 50.8357 80.2708 50.9968C80.3336 51.1575 80.4278 51.2958 80.5448 51.4114C80.6617 51.527 80.8041 51.6145 80.9727 51.6765C81.153 51.7406 81.3434 51.7722 81.5348 51.7698C81.7082 51.7685 81.8803 51.7408 82.0454 51.6877ZM80.9015 49.7525C81.0415 49.6257 81.2269 49.5636 81.4609 49.5636C81.6806 49.5636 81.8572 49.6257 81.9857 49.7413C82.1142 49.86 82.1827 50.0234 82.1939 50.2322H80.6533C80.675 50.0475 80.7632 49.877 80.9015 49.7525ZM84.4936 48.359C84.2281 48.359 84.0827 48.2122 84.06 47.9189H83.6348C83.6348 48.0315 83.6548 48.1332 83.6918 48.2292C83.729 48.3251 83.7833 48.4068 83.8545 48.4746C83.9257 48.5424 84.0172 48.596 84.1227 48.6381C84.2281 48.6804 84.3509 48.7001 84.4905 48.7001C84.619 48.7001 84.7333 48.6804 84.836 48.6381C84.9387 48.5987 85.0242 48.5424 85.0984 48.4746C85.1696 48.4068 85.2269 48.3251 85.2666 48.2292C85.3066 48.1332 85.3266 48.0315 85.3266 47.9189H84.9045C84.8845 48.2122 84.7445 48.359 84.4936 48.359ZM83.2751 49.2022V51.7132H83.726L85.1924 49.8427V51.7132H85.6433V49.2022H85.1924L83.726 51.0727V49.2022H83.2751Z" fill="#A4A4A4"/>
</svg>
