<svg width="79" height="79" viewBox="0 0 79 79" fill="none" xmlns="http://www.w3.org/2000/svg">
<path d="M0 8.13693C0 3.64302 3.64303 0 8.13694 0H69.9777C74.4716 0 78.1146 3.64303 78.1146 8.13694V69.9777C78.1146 74.4716 74.4716 78.1146 69.9777 78.1146H8.13693C3.64302 78.1146 0 74.4716 0 69.9777V8.13693Z" fill="white" fill-opacity="0.03"/>
<path d="M8.13672 0.813477H69.9775C74.022 0.813477 77.3007 4.0923 77.3008 8.13672V69.9775C77.3008 74.0221 74.0221 77.3008 69.9775 77.3008H8.13672C4.0923 77.3007 0.813477 74.022 0.813477 69.9775V8.13672C0.81359 4.09237 4.09237 0.813597 8.13672 0.813477Z" stroke="white" stroke-opacity="0.03" stroke-width="1.62739"/>
<path fill-rule="evenodd" clip-rule="evenodd" d="M58.5866 39.057C58.5866 49.8424 49.8433 58.5856 39.058 58.5856C28.2726 58.5856 19.5293 49.8424 19.5293 39.057C19.5293 28.2716 28.2726 19.5283 39.058 19.5283C49.8433 19.5283 58.5866 28.2716 58.5866 39.057ZM39.7578 33.9452C37.8583 34.7353 34.0621 36.3705 28.3691 38.8508C27.4446 39.2185 26.9604 39.5781 26.9163 39.9298C26.8418 40.5241 27.586 40.7581 28.5995 41.0768C28.7374 41.1201 28.8802 41.165 29.0266 41.2126C30.0237 41.5368 31.365 41.9159 32.0623 41.931C32.6948 41.9447 33.4007 41.6839 34.1801 41.1487C39.4992 37.5582 42.245 35.7433 42.4174 35.7042C42.539 35.6766 42.7075 35.6419 42.8217 35.7434C42.9359 35.8449 42.9247 36.0371 42.9126 36.0886C42.8389 36.4029 39.9174 39.119 38.4056 40.5245C37.9343 40.9627 37.5999 41.2735 37.5316 41.3445C37.3785 41.5035 37.2225 41.6539 37.0725 41.7985C36.1462 42.6915 35.4515 43.3611 37.111 44.4547C37.9084 44.9802 38.5466 45.4148 39.1832 45.8483C39.8784 46.3218 40.5719 46.794 41.4691 47.3822C41.6977 47.532 41.916 47.6876 42.1287 47.8392C42.9378 48.416 43.6647 48.9343 44.5627 48.8516C45.0846 48.8036 45.6236 48.3129 45.8973 46.8495C46.5443 43.3909 47.816 35.8973 48.1098 32.8094C48.1356 32.5389 48.1032 32.1926 48.0772 32.0406C48.0512 31.8886 47.9968 31.6721 47.7993 31.5118C47.5653 31.3219 47.2041 31.2819 47.0425 31.2847C46.308 31.2976 45.1811 31.6895 39.7578 33.9452Z" fill="#A4A4A4"/>
</svg>
