<svg width="132" height="79" viewBox="0 0 132 79" fill="none" xmlns="http://www.w3.org/2000/svg">
<path d="M0 8.13693C0 3.64302 3.64303 0 8.13694 0H123.682C128.175 0 131.818 3.64303 131.818 8.13694V69.9777C131.818 74.4716 128.175 78.1146 123.682 78.1146H8.13694C3.64303 78.1146 0 74.4716 0 69.9777V8.13693Z" fill="white" fill-opacity="0.03"/>
<path d="M8.13672 0.813477H123.682C127.726 0.813538 131.005 4.09234 131.005 8.13672V69.9775C131.005 74.022 127.726 77.3007 123.682 77.3008H8.13672C4.0923 77.3007 0.813477 74.022 0.813477 69.9775V8.13672C0.81359 4.09237 4.09237 0.813597 8.13672 0.813477Z" stroke="white" stroke-opacity="0.03" stroke-width="1.62739"/>
<path d="M61.7207 50.4017H55.9629L59.5642 28.0703H65.3217L61.7207 50.4017Z" fill="#A4A4A4"/>
<path d="M82.592 28.6168C81.4564 28.1649 79.6551 27.666 77.4278 27.666C71.7418 27.666 67.7378 30.7067 67.7132 35.054C67.666 38.2615 70.58 40.0429 72.7594 41.1124C74.987 42.2052 75.7442 42.9185 75.7442 43.8926C75.7216 45.3887 73.9442 46.0783 72.2865 46.0783C69.9877 46.0783 68.756 45.7227 66.8842 44.8904L66.126 44.5336L65.3203 49.5465C66.6707 50.1635 69.1587 50.711 71.7418 50.735C77.7832 50.735 81.7164 47.7413 81.763 43.1086C81.786 40.5665 80.2473 38.6186 76.93 37.0269C74.9162 36.0051 73.6829 35.3161 73.6829 34.2706C73.7065 33.3202 74.726 32.3468 76.9993 32.3468C78.8711 32.2991 80.2464 32.7503 81.2882 33.2018L81.809 33.4389L82.592 28.6168Z" fill="#A4A4A4"/>
<path d="M90.2461 42.4905C90.7203 41.2076 92.5449 36.2423 92.5449 36.2423C92.5209 36.29 93.0181 34.9358 93.3024 34.1044L93.7048 36.0286C93.7048 36.0286 94.7951 41.374 95.0319 42.4905C94.1321 42.4905 91.3834 42.4905 90.2461 42.4905ZM97.3533 28.0703H92.8997C91.5263 28.0703 90.4829 28.4738 89.8903 29.9232L81.3379 50.4014H87.3793C87.3793 50.4014 88.374 47.6452 88.5878 47.0516C89.2505 47.0516 95.1276 47.0516 95.9803 47.0516C96.1456 47.8356 96.6673 50.4014 96.6673 50.4014H101.998L97.3533 28.0703Z" fill="#A4A4A4"/>
<path d="M51.1529 28.0703L45.5142 43.2982L44.898 40.2098C43.8555 36.6462 40.586 32.7744 36.9375 30.8493L42.1024 50.378H48.1911L57.2413 28.0703H51.1529Z" fill="#A4A4A4"/>
<path d="M40.2784 28.0703H31.0147L30.9199 28.5215C38.1462 30.3747 42.932 34.8417 44.8983 40.2107L42.8844 29.9475C42.5529 28.5212 41.534 28.1174 40.2784 28.0703Z" fill="#A4A4A4"/>
</svg>
