<svg width="79" height="79" viewBox="0 0 79 79" fill="none" xmlns="http://www.w3.org/2000/svg">
<path d="M0 8.13693C0 3.64302 3.64303 0 8.13694 0H69.9777C74.4716 0 78.1146 3.64303 78.1146 8.13694V69.9777C78.1146 74.4716 74.4716 78.1146 69.9777 78.1146H8.13693C3.64302 78.1146 0 74.4716 0 69.9777V8.13693Z" fill="white" fill-opacity="0.03"/>
<path d="M8.13672 0.813477H69.9775C74.022 0.813477 77.3007 4.0923 77.3008 8.13672V69.9775C77.3008 74.0221 74.0221 77.3008 69.9775 77.3008H8.13672C4.0923 77.3007 0.813477 74.022 0.813477 69.9775V8.13672C0.81359 4.09237 4.09237 0.813597 8.13672 0.813477Z" stroke="white" stroke-opacity="0.03" stroke-width="1.62739"/>
<path fill-rule="evenodd" clip-rule="evenodd" d="M22.2748 22.2738C19.5293 25.0193 19.5293 29.4381 19.5293 38.2758V39.8381C19.5293 48.6758 19.5293 53.0946 22.2748 55.8402C25.0203 58.5856 29.4391 58.5856 38.2768 58.5856H39.8391C48.6768 58.5856 53.0956 58.5856 55.8411 55.8402C58.5866 53.0946 58.5866 48.6758 58.5866 39.8381V38.2758C58.5866 29.4381 58.5866 25.0193 55.8411 22.2738C53.0956 19.5283 48.6768 19.5283 39.8391 19.5283H38.2768C29.4391 19.5283 25.0203 19.5283 22.2748 22.2738ZM26.1203 31.4083C26.3319 41.5632 31.4093 47.6659 40.3111 47.6659H40.8157V41.8562C44.0868 42.1816 46.5602 44.5739 47.5529 47.6659H52.1748C50.9054 43.0442 47.5691 40.4892 45.4861 39.5127C47.5691 38.3085 50.4984 35.3792 51.1982 31.4083H46.9995C46.0881 34.6306 43.387 37.5599 40.8157 37.8365V31.4083H36.6169V42.6699C34.0131 42.0189 30.7258 38.8618 30.5793 31.4083H26.1203Z" fill="#A4A4A4"/>
</svg>
