<svg width="79" height="79" viewBox="0 0 79 79" fill="none" xmlns="http://www.w3.org/2000/svg">
<path d="M0 8.13693C0 3.64302 3.64303 0 8.13694 0H69.9777C74.4716 0 78.1146 3.64303 78.1146 8.13694V69.9777C78.1146 74.4716 74.4716 78.1146 69.9777 78.1146H8.13693C3.64302 78.1146 0 74.4716 0 69.9777V8.13693Z" fill="white" fill-opacity="0.03"/>
<path d="M8.13672 0.813477H69.9775C74.022 0.813477 77.3007 4.0923 77.3008 8.13672V69.9775C77.3008 74.0221 74.0221 77.3008 69.9775 77.3008H8.13672C4.0923 77.3007 0.813477 74.022 0.813477 69.9775V8.13672C0.81359 4.09237 4.09237 0.813597 8.13672 0.813477Z" stroke="white" stroke-opacity="0.03" stroke-width="1.62739"/>
<path d="M58.1976 32.0076C58.1976 32.0076 57.8162 29.2956 56.6414 28.1047C55.1538 26.5375 53.4909 26.5298 52.728 26.4376C47.2661 26.0381 39.0656 26.0381 39.0656 26.0381H39.0503C39.0503 26.0381 30.8498 26.0381 25.3879 26.4376C24.6251 26.5298 22.9621 26.5375 21.4745 28.1047C20.2998 29.2956 19.926 32.0076 19.926 32.0076C19.926 32.0076 19.5293 35.1959 19.5293 38.3766V41.3575C19.5293 44.5382 19.9183 47.7265 19.9183 47.7265C19.9183 47.7265 20.2998 50.4385 21.4669 51.6293C22.9544 53.1966 24.9073 53.1428 25.7769 53.3119C28.9046 53.6115 39.058 53.7037 39.058 53.7037C39.058 53.7037 47.2661 53.6883 52.728 53.2965C53.4909 53.2043 55.1538 53.1966 56.6414 51.6293C57.8162 50.4385 58.1976 47.7265 58.1976 47.7265C58.1976 47.7265 58.5866 44.5458 58.5866 41.3575V38.3766C58.5866 35.1959 58.1976 32.0076 58.1976 32.0076ZM35.0225 44.9761V33.9206L45.5726 39.4675L35.0225 44.9761Z" fill="#A4A4A4"/>
</svg>
