<svg width="53" height="53" viewBox="0 0 53 53" fill="none" xmlns="http://www.w3.org/2000/svg">
<rect width="53" height="53" rx="10" fill="#C9022D" fill-opacity="0.2"/>
<path d="M36.999 32.0006C36.999 32.531 36.7883 33.0398 36.4132 33.4148C36.0382 33.7899 35.5295 34.0006 34.999 34.0006H21.827C21.2966 34.0007 20.788 34.2115 20.413 34.5866L18.211 36.7886C18.1117 36.8879 17.9852 36.9555 17.8475 36.9829C17.7098 37.0103 17.5671 36.9962 17.4373 36.9425C17.3076 36.8887 17.1967 36.7978 17.1187 36.681C17.0407 36.5643 16.999 36.427 16.999 36.2866V20.0006C16.999 19.4702 17.2097 18.9615 17.5848 18.5864C17.9599 18.2113 18.4686 18.0006 18.999 18.0006H34.999C35.5295 18.0006 36.0382 18.2113 36.4132 18.5864C36.7883 18.9615 36.999 19.4702 36.999 20.0006V32.0006Z" stroke="#F11C0A" stroke-width="1.5" stroke-linecap="round" stroke-linejoin="round"/>
<path d="M26.999 26.0001H27.009" stroke="#F11C0A" stroke-width="2" stroke-linecap="round" stroke-linejoin="round"/>
<path d="M31 26H31.01" stroke="#F11C0A" stroke-width="2" stroke-linecap="round" stroke-linejoin="round"/>
<path d="M22.999 26.0004H23.009" stroke="#F11C0A" stroke-width="2" stroke-linecap="round" stroke-linejoin="round"/>
</svg>
