<svg width="53" height="53" viewBox="0 0 53 53" fill="none" xmlns="http://www.w3.org/2000/svg">
<rect width="53" height="53" rx="10" fill="#C9022D" fill-opacity="0.2"/>
<path d="M26.999 37.0002C24.3469 37.0002 21.8033 35.9467 19.928 34.0713C18.0526 32.1959 16.999 29.6524 16.999 27.0002C16.999 24.3481 18.0526 21.8045 19.928 19.9292C21.8033 18.0538 24.3469 17.0002 26.999 17.0002C29.6512 17.0002 32.1947 17.9485 34.0701 19.6363C35.9455 21.3241 36.999 23.6133 36.999 26.0002C36.999 27.3263 36.4722 28.5981 35.5346 29.5358C34.5969 30.4735 33.3251 31.0002 31.999 31.0002H29.749C29.424 31.0002 29.1055 31.0907 28.829 31.2616C28.5525 31.4325 28.3291 31.6769 28.1838 31.9676C28.0384 32.2583 27.9769 32.5837 28.0061 32.9074C28.0353 33.2311 28.154 33.5402 28.349 33.8002L28.649 34.2002C28.844 34.4602 28.9628 34.7694 28.992 35.0931C29.0211 35.4168 28.9596 35.7422 28.8143 36.0329C28.6689 36.3236 28.4455 36.568 28.1691 36.7389C27.8926 36.9097 27.574 37.0002 27.249 37.0002H26.999Z" stroke="#F11C0A" stroke-width="1.5" stroke-linecap="round" stroke-linejoin="round"/>
<path d="M28.499 22.0007C28.7752 22.0007 28.999 21.7769 28.999 21.5007C28.999 21.2246 28.7752 21.0007 28.499 21.0007C28.2229 21.0007 27.999 21.2246 27.999 21.5007C27.999 21.7769 28.2229 22.0007 28.499 22.0007Z" stroke="#F11C0A" stroke-linecap="round" stroke-linejoin="round"/>
<path d="M32.498 26.0002C32.7742 26.0002 32.998 25.7764 32.998 25.5002C32.998 25.2241 32.7742 25.0002 32.498 25.0002C32.2219 25.0002 31.998 25.2241 31.998 25.5002C31.998 25.7764 32.2219 26.0002 32.498 26.0002Z" stroke="#F11C0A" stroke-linecap="round" stroke-linejoin="round"/>
<path d="M21.5 28.0005C21.7761 28.0005 22 27.7766 22 27.5005C22 27.2243 21.7761 27.0005 21.5 27.0005C21.2239 27.0005 21 27.2243 21 27.5005C21 27.7766 21.2239 28.0005 21.5 28.0005Z" stroke="#F11C0A" stroke-linecap="round" stroke-linejoin="round"/>
<path d="M23.499 23.001C23.7752 23.001 23.999 22.7771 23.999 22.501C23.999 22.2248 23.7752 22.001 23.499 22.001C23.2229 22.001 22.999 22.2248 22.999 22.501C22.999 22.7771 23.2229 23.001 23.499 23.001Z" stroke="#F11C0A" stroke-linecap="round" stroke-linejoin="round"/>
</svg>
