<svg width="53" height="53" viewBox="0 0 53 53" fill="none" xmlns="http://www.w3.org/2000/svg">
<rect width="53" height="53" rx="10" fill="#C9022D" fill-opacity="0.2"/>
<path d="M32 17.0005H22C20.8954 17.0005 20 17.8959 20 19.0005V23.0005C20 24.1051 20.8954 25.0005 22 25.0005H32C33.1046 25.0005 34 24.1051 34 23.0005V19.0005C34 17.8959 33.1046 17.0005 32 17.0005Z" stroke="#F11C0A" stroke-width="1.5" stroke-linecap="round" stroke-linejoin="round"/>
<path d="M35.001 29.0009H19.001C17.8964 29.0009 17.001 29.8963 17.001 31.0009V35.0009C17.001 36.1054 17.8964 37.0009 19.001 37.0009H35.001C36.1055 37.0009 37.001 36.1054 37.001 35.0009V31.0009C37.001 29.8963 36.1055 29.0009 35.001 29.0009Z" stroke="#F11C0A" stroke-width="1.5" stroke-linecap="round" stroke-linejoin="round"/>
<path d="M21 33.0004H23" stroke="#F11C0A" stroke-width="1.5" stroke-linecap="round" stroke-linejoin="round"/>
<path d="M27 33.0005H33" stroke="#F11C0A" stroke-width="1.5" stroke-linecap="round" stroke-linejoin="round"/>
</svg>
