<svg width="53" height="53" viewBox="0 0 53 53" fill="none" xmlns="http://www.w3.org/2000/svg">
<g clip-path="url(#clip0_6047_3689)">
<rect width="53" height="53" rx="10" fill="#C9022D" fill-opacity="0.2"/>
<rect x="0.25" y="0.25" width="52.5" height="52.5" rx="0.75" stroke="#C9022D" stroke-width="0.5"/>
<path d="M27 18.0007C27.6667 20.6674 29 22.8341 31 24.5007C33 26.1674 34 28.0007 34 30.0007C34 31.8572 33.2625 33.6377 31.9497 34.9505C30.637 36.2632 28.8565 37.0007 27 37.0007C25.1435 37.0007 23.363 36.2632 22.0503 34.9505C20.7375 33.6377 20 31.8572 20 30.0007C20 28.9189 20.3509 27.8662 21 27.0007C21 27.6638 21.2634 28.2997 21.7322 28.7685C22.2011 29.2373 22.837 29.5007 23.5 29.5007C24.163 29.5007 24.7989 29.2373 25.2678 28.7685C25.7366 28.2997 26 27.6638 26 27.0007C26 25.0007 24.5 24.0007 24.5 22.0007C24.5 20.6674 25.3333 19.3341 27 18.0007Z" stroke="#C9022D" stroke-width="1.5" stroke-linecap="round" stroke-linejoin="round"/>
</g>
<defs>
<clipPath id="clip0_6047_3689">
<rect width="53" height="53" rx="10" fill="white"/>
</clipPath>
</defs>
</svg>
